<svg xmlns="http://www.w3.org/2000/svg" width="112.87mm" height="80.699997mm" viewBox="0 0 112.87 80.699997"><path d="M54.194 80.58c-7.343-.94-13.48-5.279-18.752-13.256-2.166-3.277-4.564-8.12-6.516-13.155-.274-.708-.7-1.772-.945-2.364l-.447-1.077-1.532-.08c-2.837-.147-4.216-.529-5.674-1.569-2.834-2.022-3.338-5.77-1.21-8.987 1.327-2.005 3.625-3.739 6.101-4.604 2.189-.764 4.748-.918 6.765-.406 3.129.793 5.205 2.539 6.698 5.63l.442.915 1.958-1.013c3.876-2.006 6.541-4.044 8.773-6.708 2.855-3.41 4.517-7.19 5.296-12.047.245-1.535.344-5.757.167-7.17-.485-3.866-2.087-6.782-4.693-8.541-3.957-2.672-9.763-2.49-14.129.442-1.14.767-2.99 2.688-3.844 3.996-1.304 1.996-1.879 3.446-3.255 8.206-2.014 6.97-3.796 10.9-6.724 14.834-2.777 3.455-6.009 6.945-10.353 6.994a8.57 8.57 0 0 1-1.601-.165c-1.063-.203-2.942-.206-7.237-.01-1.787.08-3.162.123-3.361.093-.336-.049-.064-.148 1.986-1.342 3.46-2.017 4.312-2.63 6.168-4.443 1.914-1.868 3.336-3.75 4.755-6.289.788-1.41 1.414-2.796 3.159-6.985 2.7-6.486 3.63-8.41 5.226-10.82 1.162-1.753 1.793-2.542 3.156-3.943C27.642 3.56 31.35 1.478 35.364.66c2.716-.553 7.29-.807 10.322-.573 4.897.379 9.493 1.793 13.094 4.03 4.523 2.808 7.736 7.398 8.863 12.66.213.993.253 1.532.259 3.47.004 1.443-.049 2.607-.142 3.135-1.053 5.948-3.816 10.921-8.131 14.636-4.527 3.897-10.698 6.952-17.47 8.65-.8.201-1.47.377-1.487.392-.042.035 1.047 3.894 1.992 7.053 1.846 6.172 3.2 9.747 5.121 13.53 2.597 5.11 5.198 7.714 8.316 8.328 2.198.433 4.408-.44 6.407-2.532 1.564-1.637 2.803-3.524 3.897-5.937 1.015-2.237 4.56-11.475 7.98-20.791 3.119-8.497 4.1-10.932 5.953-14.786 2.252-4.68 4.952-8.838 7.502-11.548 3.443-3.66 7.842-5.864 12.255-6.14.895-.055 1.224-.024 2.071.194 1.203.31 1.835.314 7.033.04 3.88-.203 4.401-.151 2.908.288-6.659 1.96-11.812 6.333-16.185 13.733-2.23 3.775-3.605 6.814-8.141 18.008-5.634 13.902-7.438 17.754-10.264 21.928a52.226 52.226 0 0 1-1.91 2.63c-1.059 1.33-3.698 3.992-4.892 4.934-3.238 2.554-6.553 4.006-10.357 4.536-1.344.188-4.875.218-6.164.052zm-28.66-35.342c0-.375-.75-1.76-1.26-2.324-.672-.744-1.479-1.177-2.341-1.255-.799-.073-.873-.004-.874.811-.002.818.184 1.358.64 1.863.722.799 1.457 1.08 2.856 1.094.868.009.98-.013.98-.19z" style="fill:#fdb69f;fill-opacity:1;stroke-width:.111952"/></svg>